<svg width="27" height="25" viewBox="0 0 27 25" fill="none" xmlns="http://www.w3.org/2000/svg">
<g clip-path="url(#clip0_3183_1538)">
<path d="M23.6422 0L19.9307 0.964308L21.7349 5.3258L25.2914 4.40745L23.6422 0Z" fill="#EEE4C3"/>
<path d="M17.6632 1.51527L12.8174 2.75456L12.9206 2.93838L13.8485 5.18794L14.6732 7.1163L19.5187 5.87677L17.6632 1.51527Z" fill="#EEE4C3"/>
<path d="M10.6006 3.30551L6.32227 4.40744L8.17805 8.76918L12.4563 7.66725L11.3739 5.18792L10.6006 3.30551Z" fill="#EEE4C3"/>
<path d="M4.10561 4.9584L0.548828 5.87676L2.19851 10.2842L5.9098 9.32015L4.10561 4.9584Z" fill="#EEE4C3"/>
<path d="M2.19824 10.2842V23.5065C2.19824 24.3205 2.93377 24.9756 3.84764 24.9756H25.291C26.2048 24.9756 26.9409 24.3205 26.9409 23.5065V10.2842H2.19824ZM23.6418 17.6298H5.49704V13.2226H23.6416L23.6418 17.6298Z" fill="#EEE4C3"/>
</g>
<defs>
<clipPath id="clip0_3183_1538">
<rect width="26.3924" height="24.9756" fill="white" transform="translate(0.548828)"/>
</clipPath>
</defs>
</svg>
