<svg width="54" height="54" viewBox="0 0 54 54" fill="none" xmlns="http://www.w3.org/2000/svg">
<path d="M27.0002 48.3335C15.2402 48.3335 5.66683 38.7602 5.66683 27.0002C5.66683 15.2402 15.2402 5.66683 27.0002 5.66683C38.7602 5.66683 48.3335 15.2402 48.3335 27.0002C48.3335 38.7602 38.7602 48.3335 27.0002 48.3335ZM27.0002 0.333496C23.4982 0.333496 20.0306 1.02325 16.7953 2.36338C13.5599 3.7035 10.6202 5.66775 8.14398 8.14398C3.14301 13.145 0.333496 19.9277 0.333496 27.0002C0.333496 34.0726 3.14301 40.8554 8.14398 45.8563C10.6202 48.3326 13.5599 50.2968 16.7953 51.637C20.0306 52.9771 23.4982 53.6668 27.0002 53.6668C34.0726 53.6668 40.8554 50.8573 45.8563 45.8563C50.8573 40.8554 53.6668 34.0726 53.6668 27.0002C53.6668 23.4982 52.9771 20.0306 51.637 16.7953C50.2968 13.5599 48.3326 10.6202 45.8563 8.14398C43.3801 5.66775 40.4404 3.7035 37.2051 2.36338C33.9697 1.02325 30.5021 0.333496 27.0002 0.333496ZM21.6668 39.0002L37.6668 27.0002L21.6668 15.0002V39.0002Z" fill="#E7C673"/>
</svg>
